<?xml version="1.0" encoding="utf-8"?>
<!-- Generator: Adobe Illustrator 16.0.0, SVG Export Plug-In . SVG Version: 6.00 Build 0)  -->
<!DOCTYPE svg PUBLIC "-//W3C//DTD SVG 1.1//EN" "http://www.w3.org/Graphics/SVG/1.1/DTD/svg11.dtd">
<svg version="1.1" xmlns="http://www.w3.org/2000/svg" xmlns:xlink="http://www.w3.org/1999/xlink" x="0px" y="0px" width="100px"
	 height="100px" viewBox="0 0 100 100" style="enable-background:new 0 0 100 100;" xml:space="preserve">
<style type="text/css">
<![CDATA[
	.st0{fill:#171617;}
	.st1{fill:#E6E6E6;}
	.st2{fill:none;stroke:#000000;stroke-width:0.1252;stroke-miterlimit:10;}
	.st3{fill:#FFFFFF;}
	.st4{display:inline;}
	.st5{fill:none;stroke:#000000;stroke-width:0.6173;stroke-miterlimit:10;}
	.st6{display:none;}
]]>
</style>
<g id="Icons">
</g>
<g id="Layer_5">
	<rect x="3.463" y="36.929" class="st0" width="93.004" height="28.7"/>
	<g>
		<rect x="50.091" y="60.703" class="st1" width="10.813" height="3.681"/>
		<path class="st1" d="M50,0C22.386,0,0,22.386,0,50.001C0,77.614,22.386,100,50,100c27.615,0,50-22.386,50-49.999
			C100,22.386,77.615,0,50,0z M35.155,36.966h29.991v4.277H38.928v16.926h-3.773V36.966z M17.731,60.703H5.26v1.223h9.513v1.243
			H5.26v1.215h12.471v1.245H3.463v-6.171h14.268V60.703z M32.708,65.63H18.373v-1.244h12.592v-1.217H18.373v-3.711H32.64v1.245
			H20.152v1.223h12.556V65.63z M33.166,58.169h-6.837V54.95h3.347V44.872L13.831,54.95h9.577v3.219H3.177l29.988-21.202V58.169z
			 M47.525,60.703H35.134v3.679h12.391v1.243H33.338v-6.167h14.187V60.703z M62.564,65.626H48.296v-6.168h14.268V65.626z
			 M77.516,65.627H63.249v-6.169h1.795v4.926h4.439v-4.926h1.798v4.926h4.575v-4.926h1.66V65.627z M78.474,42.428l5.891-0.01
			l0.024,15.709l-5.888,0.011L78.474,42.428z M80.754,65.598h-1.797v-6.14h1.797V65.598z M96.463,65.601h-1.66v-4.897H83.992v4.924
			h-1.796v-6.169h14.267V65.601z M66.617,41.208v-4.279h29.851v4.279H66.617z"/>
	</g>
	<g class="st6">
		<rect x="50.091" y="60.703" class="st4" width="10.813" height="3.681"/>
		<path class="st4" d="M50,0C22.386,0,0,22.386,0,50.001C0,77.614,22.386,100,50,100c27.615,0,50-22.386,50-49.999
			C100,22.386,77.615,0,50,0z M35.155,36.966h29.991v4.277H38.928v16.926h-3.773V36.966z M17.731,60.703H5.26v1.223h9.513v1.243
			H5.26v1.215h12.471v1.245H3.463v-6.171h14.268V60.703z M32.708,65.63H18.373v-1.244h12.592v-1.217H18.373v-3.711H32.64v1.245
			H20.152v1.223h12.556V65.63z M33.166,58.169h-6.837V54.95h3.347V44.872L13.831,54.95h9.577v3.219H3.177l29.988-21.202V58.169z
			 M47.525,60.703H35.134v3.679h12.391v1.243H33.338v-6.167h14.187V60.703z M62.564,65.626H48.296v-6.168h14.268V65.626z
			 M77.516,65.627H63.249v-6.169h1.795v4.926h4.439v-4.926h1.798v4.926h4.575v-4.926h1.66V65.627z M78.474,42.428l5.891-0.01
			l0.024,15.709l-5.888,0.011L78.474,42.428z M80.754,65.598h-1.797v-6.14h1.797V65.598z M96.463,65.601h-1.66v-4.897H83.992v4.924
			h-1.796v-6.169h14.267V65.601z M66.617,41.208v-4.279h29.851v4.279H66.617z"/>
	</g>
</g>
<g id="logo">
</g>
<g id="escowin_1_">
</g>
<g id="Typeface">
</g>
</svg>
