<?xml version="1.0" encoding="utf-8"?>
<!-- Generator: Adobe Illustrator 16.0.0, SVG Export Plug-In . SVG Version: 6.00 Build 0)  -->
<!DOCTYPE svg PUBLIC "-//W3C//DTD SVG 1.1//EN" "http://www.w3.org/Graphics/SVG/1.1/DTD/svg11.dtd">
<svg version="1.1" xmlns="http://www.w3.org/2000/svg" xmlns:xlink="http://www.w3.org/1999/xlink" x="0px" y="0px"
	 width="1003.561px" height="612px" viewBox="0 0 1003.561 612" style="enable-background:new 0 0 1003.561 612;"
	 xml:space="preserve">
<style type="text/css">
<![CDATA[
	.st0{fill:#171617;}
	.st1{fill:#E6E6E6;}
	.st2{fill:none;stroke:#000000;stroke-width:0.1252;stroke-miterlimit:10;}
	.st3{fill:#FFFFFF;}
	.st4{display:inline;}
	.st5{fill:none;stroke:#000000;stroke-width:0.6173;stroke-miterlimit:10;}
	.st6{display:none;}
]]>
</style>
<g id="Icons">
	<g id="instagram">
		<g>
			<path d="M332.583,493.875c-27.614,0-50,22.385-50,50c0,27.614,22.386,50,50,50c27.615,0,50-22.386,50-50
				C382.583,516.26,360.199,493.875,332.583,493.875z"/>
			<path class="st5" d="M332.583,493.875c-27.614,0-50,22.385-50,50c0,27.614,22.386,50,50,50c27.615,0,50-22.386,50-50
				C382.583,516.26,360.199,493.875,332.583,493.875z"/>
		</g>
	</g>
	<g id="inPRNT">
		<path d="M811.406,513.942h-4.479v26.872h4.479c1.295-0.318,1.494-1.715,1.494-1.715v-23.6
			C812.9,515.5,812.701,514.23,811.406,513.942z"/>
		<path d="M783.34,513.942h-4.479v26.872h4.479c1.295-0.318,1.494-1.715,1.494-1.715v-23.6
			C784.834,515.5,784.635,514.23,783.34,513.942z"/>
		<g>
			<g>
				<rect x="708.037" y="527.303" width="7.764" height="33.143"/>
				<polygon points="739.986,527.303 739.986,543.874 731.326,527.303 722.668,527.303 722.668,560.445 731.326,560.445 
					731.326,543.874 739.986,560.445 748.645,560.445 748.645,527.303 				"/>
			</g>
		</g>
		<g>
			<path d="M868.574,493.875H702.883c-9.654,0-17.479,9.752-17.479,21.781v56.437c0,12.03,7.824,21.782,17.479,21.782h165.691
				c9.654,0,17.479-9.752,17.479-21.782v-56.437C886.053,503.627,878.229,493.875,868.574,493.875z M760.193,582.362H694.52
				c-1.498,0-2.994-1.495-2.994-2.989v-71.835c0-1.495,1.496-3.002,2.994-3.002h65.674c1.496,0,2.992,1.495,2.992,2.989v71.848
				C763.186,580.867,761.689,582.362,760.193,582.362z M793.045,537.418c0,6.147-3.832,11.309-9.705,11.309h-4.479v33.74h-7.615
				v-77.931h14.035c5.674,0,7.764,4.479,7.764,9.33V537.418z M822.902,582.467h-6.568c-2.314-0.597-3.434-5.226-3.434-5.226v-26.956
				c0,0-0.199-1.27-1.494-1.559h-4.479v33.74h-7.613v-77.931h14.033c5.674,0,7.764,4.479,7.764,9.33v23.552
				c0,0-0.822,4.853-4.254,7.428c3.469,2.164,4.254,7.066,4.254,7.066v24.808c0,0-0.299,2.836,1.791,2.761V582.467z
				 M853.658,582.467h-7.764l-9.855-43.589v43.589h-7.762v-77.931h7.762l9.855,43.588v-43.588h7.764V582.467z M879.932,513.579
				h-6.867v68.888h-7.762v-68.823h-6.869v-9.107h21.498V513.579z"/>
		</g>
	</g>
</g>
<g id="Layer_5">
</g>
<g id="logo">
</g>
<g id="escowin_1_">
	<polygon points="414.301,371.348 414.301,355.381 405.234,355.381 405.234,371.348 401.674,371.348 401.674,355.381 
		392.877,355.381 392.877,371.348 389.319,371.348 389.319,351.348 417.59,351.348 417.59,371.348 	"/>
	<polygon points="581.383,371.348 581.383,355.381 572.316,355.381 572.316,371.348 568.756,371.348 568.756,355.381 
		559.959,355.381 559.959,371.348 556.4,371.348 556.4,351.348 584.672,351.348 584.672,371.348 	"/>
	<path d="M475.08,320.818h-5.502v-4.006h5.502V320.818z"/>
	<g>
		<polygon points="420.016,371.348 439.068,371.348 439.068,368.316 430.051,368.316 444.973,358.826 444.973,368.316 
			441.82,368.316 441.82,371.348 448.258,371.348 448.258,351.348 		"/>
	</g>
	<path d="M523.275,371.348h-28.127v-20h28.127v4.035h-24.568v11.93h24.568V371.348z"/>
	<path d="M454.057,371.348h-3.578v-20h3.578V371.348z"/>
	<path d="M484.746,371.348h-28.242v-20h3.555v15.971h24.688V371.348z"/>
	<g>
		<path d="M553.975,371.348h-28.277v-20h28.277V371.348z M550.686,367.315v-11.935h-21.43v11.935H550.686z"/>
		<rect x="537.023" y="359.344" width="5.625" height="4.033"/>
	</g>
	<polygon points="386.438,355.387 386.438,351.348 357.858,351.348 357.858,371.348 386.438,371.348 386.438,359.314 
		386.438,359.314 376.512,359.314 376.512,362.508 383.176,362.65 383.176,367.253 361.463,367.253 361.463,355.387 	"/>
	<polygon points="319.489,307.318 311.191,317.327 331.191,317.327 331.191,299.831 327.664,299.831 318.063,299.831 
		299.754,321.831 331.191,321.831 331.191,318.773 306.346,318.773 318.477,304.274 327.664,304.274 327.664,306.073 
		327.664,307.318 327.664,310.831 327.664,311.639 327.664,314.504 317.809,314.504 320.882,310.831 326.452,310.831 
		326.452,307.318 	"/>
	<g id="escowin_type">
		<g>
			<polygon points="356.026,392.335 356.026,388.819 378.093,388.819 378.093,385.223 352.882,385.223 352.882,395.913 
				375.131,395.913 375.131,399.447 352.882,399.447 352.882,403.044 378.211,403.044 378.211,392.335 			"/>
			<path d="M404.398,403.03h-25.073v-17.646h25.073v3.597H382.5v10.452h21.899V403.03z"/>
			<path d="M430.969,403.034h-25.211V385.39h25.211V403.034z M428.035,399.439v-10.453h-19.104v10.453H428.035z"/>
			<polygon points="454.455,385.294 454.455,399.439 446.371,399.439 446.371,385.214 443.197,385.214 443.197,399.439 
				435.352,399.439 435.352,385.214 432.18,385.214 432.18,403.036 457.387,403.036 457.387,385.294 			"/>
			<path d="M463.109,402.948h-3.174v-17.646h3.174V402.948z"/>
			<path d="M490.869,402.959h-2.934V388.81h-19.104v14.227h-3.174v-17.822h25.211V402.959z"/>
			<path d="M544.311,388.829h-22.039v14.228H519.1v-17.824h25.211V388.829z"/>
			<polygon points="351.748,388.893 351.748,385.297 326.539,385.297 326.539,403.04 351.748,403.04 351.748,399.443 
				329.712,399.443 329.712,395.928 346.521,395.928 346.521,392.331 329.712,392.331 329.712,388.893 			"/>
			<g>
				<polygon points="492.219,403.057 509.225,403.057 509.225,400.351 501.174,400.351 514.494,391.879 514.494,400.351 
					511.68,400.351 511.68,403.057 517.428,403.057 517.428,385.233 				"/>
			</g>
			<g>
				<rect x="545.547" y="385.202" width="25.094" height="3.597"/>
				<rect x="555.526" y="389.821" transform="matrix(-1 0.0018 -0.0018 -1 1116.7051 791.8551)" width="4.949" height="13.205"/>
			</g>
			<path d="M644.584,395.178h-22.039v32.458h-3.172v-40.663h25.211V395.178z"/>
			<g>
				<polygon points="592.492,427.636 609.498,427.636 609.498,421.462 601.447,421.462 614.766,402.136 614.766,421.462 
					611.953,421.462 611.953,427.636 617.699,427.636 617.699,386.975 				"/>
			</g>
			<g>
				<rect x="645.82" y="386.903" width="25.092" height="8.205"/>
				<polygon points="655.809,427.575 660.76,427.556 660.738,397.43 655.787,397.448 				"/>
			</g>
			<rect x="415.855" y="392.42" width="5.016" height="3.41"/>
		</g>
		<g>
			<g>
				<path d="M336.678,407.811c-5.6,0-10.14,4.539-10.14,10.138c0,5.601,4.54,10.14,10.14,10.14s10.139-4.539,10.139-10.14
					C346.817,412.35,342.278,407.811,336.678,407.811z M339.599,414.299l-1.393,0.034c-0.393,0.112-0.36,0.353-0.36,1.26h1.753
					v2.504h-1.753v6.006h-2.752v-6.006h-1.335v-2.504h1.335v-1.776c0.258-1.162,1.31-1.792,2.252-2.022h2.253V414.299z"/>
			</g>
			<g>
				<polygon points="370.463,416.868 370.463,414.746 383.722,414.746 383.722,412.586 368.574,412.586 368.574,419.028 
					381.942,419.028 381.942,421.145 368.574,421.145 368.574,423.305 383.793,423.305 383.793,416.868 				"/>
				<path d="M399.527,423.297h-15.064v-10.711h15.064v2.16h-13.158v6.391h13.158V423.297z"/>
				<path d="M415.492,423.299h-15.148v-10.713h15.148V423.299z M413.73,421.139v-6.393h-11.48v6.393H413.73z"/>
				<polygon points="429.605,412.586 429.605,421.141 424.746,421.141 424.746,412.586 422.84,412.586 422.84,421.141 
					418.127,421.141 418.127,412.586 416.221,412.586 416.221,423.301 431.367,423.301 431.367,412.586 				"/>
				<path d="M434.807,423.248h-1.908v-10.662h1.908V423.248z"/>
				<path d="M451.484,423.254h-1.764v-8.508h-11.477v8.555h-1.906v-10.715h15.146V423.254z"/>
				<path d="M483.594,414.746h-13.24v8.565h-1.906v-10.726h15.146V414.746z"/>
				<polygon points="367.893,414.746 367.893,412.586 352.744,412.586 352.744,412.586 352.744,423.303 367.893,423.303 
					367.893,421.143 354.652,421.143 354.652,419.028 364.751,419.028 364.751,416.868 354.652,416.868 354.652,414.746 				"/>
				<g>
					<polygon points="452.295,423.312 462.514,423.312 462.514,421.686 457.676,421.686 465.678,416.596 465.678,421.686 
						463.988,421.686 463.988,423.312 467.441,423.312 467.441,412.586 					"/>
				</g>
				<g>
					<rect x="484.34" y="412.586" width="15.074" height="2.16"/>
					<polygon points="490.338,423.297 493.314,423.291 493.314,415.356 490.326,415.362 					"/>
				</g>
				<rect x="406.412" y="416.868" width="3.014" height="2.16"/>
			</g>
		</g>
		<g>
			<g>
				<g>
					<circle cx="336.677" cy="440.064" r="2.652"/>
					<circle class="st2" cx="336.677" cy="440.064" r="2.652"/>
				</g>
				<g>
					<path d="M342.483,438.014c0-2.065-1.69-3.755-3.755-3.755h-4.1c-2.065,0-3.755,1.689-3.755,3.755v4.101
						c0,2.065,1.69,3.755,3.755,3.755h4.1c2.065,0,3.755-1.689,3.755-3.755V438.014z M336.677,443.533
						c-1.916,0-3.47-1.555-3.47-3.471s1.554-3.471,3.47-3.471c1.917,0,3.472,1.555,3.472,3.471S338.594,443.533,336.677,443.533z
						 M340.407,437.241c-0.45,0-0.813-0.364-0.813-0.814c0-0.449,0.364-0.813,0.813-0.813s0.814,0.364,0.814,0.813
						C341.221,436.877,340.857,437.241,340.407,437.241z"/>
					<path class="st2" d="M342.483,438.014c0-2.065-1.69-3.755-3.755-3.755h-4.1c-2.065,0-3.755,1.689-3.755,3.755v4.101
						c0,2.065,1.69,3.755,3.755,3.755h4.1c2.065,0,3.755-1.689,3.755-3.755V438.014z M336.677,443.533
						c-1.916,0-3.47-1.555-3.47-3.471s1.554-3.471,3.47-3.471c1.917,0,3.472,1.555,3.472,3.471S338.594,443.533,336.677,443.533z
						 M340.407,437.241c-0.45,0-0.813-0.364-0.813-0.814c0-0.449,0.364-0.813,0.813-0.813s0.814,0.364,0.814,0.813
						C341.221,436.877,340.857,437.241,340.407,437.241z"/>
				</g>
				<g>
					<path d="M336.677,429.925c-5.599,0-10.139,4.539-10.139,10.138c0,5.601,4.54,10.14,10.139,10.14
						c5.601,0,10.14-4.539,10.14-10.14C346.817,434.464,342.278,429.925,336.677,429.925z M343.5,443.131
						c0,2.065-1.69,3.755-3.755,3.755h-6.133c-2.065,0-3.755-1.689-3.755-3.755v-6.135c0-2.065,1.69-3.755,3.755-3.755h6.133
						c2.065,0,3.755,1.689,3.755,3.755V443.131z"/>
					<path class="st2" d="M336.677,429.925c-5.599,0-10.139,4.539-10.139,10.138c0,5.601,4.54,10.14,10.139,10.14
						c5.601,0,10.14-4.539,10.14-10.14C346.817,434.464,342.278,429.925,336.677,429.925z M343.5,443.131
						c0,2.065-1.69,3.755-3.755,3.755h-6.133c-2.065,0-3.755-1.689-3.755-3.755v-6.135c0-2.065,1.69-3.755,3.755-3.755h6.133
						c2.065,0,3.755,1.689,3.755,3.755V443.131z"/>
				</g>
			</g>
			<g>
				<polygon points="370.189,438.988 370.189,436.864 383.449,436.864 383.449,434.704 368.301,434.704 368.301,441.146 
					381.669,441.146 381.669,443.263 368.301,443.263 368.301,445.423 383.52,445.423 383.52,438.988 				"/>
				<path d="M399.253,445.415h-15.064v-10.711h15.064v2.16h-13.156v6.391h13.156V445.415z"/>
				<path d="M415.219,445.417H400.07v-10.713h15.148V445.417z M413.457,443.259v-6.395h-11.48v6.395H413.457z"/>
				<polygon points="429.332,434.704 429.332,443.259 424.475,443.259 424.475,434.704 422.566,434.704 422.566,443.259 
					417.854,443.259 417.854,434.704 415.947,434.704 415.947,445.419 431.094,445.419 431.094,434.704 				"/>
				<path d="M434.533,445.366h-1.908v-10.662h1.908V445.366z"/>
				<path d="M451.211,445.372h-1.762v-8.508h-11.479v8.555h-1.906v-10.715h15.146V445.372z"/>
				<polygon points="367.619,436.864 367.619,434.704 352.472,434.704 352.472,434.704 352.472,445.421 367.619,445.421 
					367.619,443.261 354.379,443.261 354.379,441.146 364.479,441.146 364.479,438.988 354.379,438.988 354.379,436.864 				"/>
			</g>
		</g>
	</g>
</g>
<g id="Typeface">
	<polygon points="52.801,308.818 52.801,304.835 75.67,304.835 75.67,300.818 47.801,300.818 47.801,312.818 72.801,312.818 
		72.801,316.818 47.801,316.818 47.801,320.818 75.801,320.818 75.801,308.818 	"/>
	<polygon points="151.833,271.965 151.833,267.982 174.702,267.982 174.702,263.965 146.833,263.965 146.833,275.964 
		171.833,275.964 171.833,279.965 146.833,279.965 146.833,283.965 174.833,283.965 174.833,271.965 	"/>
	<polygon points="275.962,263.965 275.962,279.965 266.724,279.965 266.724,263.965 263.199,263.965 263.199,279.965 
		255.962,279.965 255.962,263.965 250.962,263.965 250.962,283.965 278.962,283.965 278.962,263.965 	"/>
	<polygon points="106.402,263.965 106.402,279.965 86.402,279.965 86.402,263.965 81.402,263.965 81.402,283.965 109.402,283.965 
		109.402,263.965 	"/>
	<path d="M435.945,320.818h-4v-20h4V320.818z"/>
	<path d="M179.671,320.818h-4v-20h4V320.818z"/>
	<g>
		<path d="M602.637,157.159h-5v-20h5V157.159z"/>
		<path d="M642.15,145.159v4h-28v-4H642.15z"/>
	</g>
	<path d="M701.658,167.159h-5v-20h5V167.159z"/>
	<path d="M542.877,212.67h-5v-20h5V212.67z"/>
	<path d="M542.877,206.34v4h-28v-4H542.877z"/>
	<path d="M306.737,141.83l-0.936-1.017l20.75-11.513l0.936,1.018L306.737,141.83z"/>
	<path d="M284.083,130.286h-3v-20h3V130.286z"/>
	<path d="M339.486,113.383l2.682-1.284l23.47,15.089l-2.681,1.284L339.486,113.383z"/>
	<path d="M399.586,267.964h-23v16h-5v-20h28V267.964z"/>
	<path d="M369.431,267.964H346.43v16h-5v-20h28.001V267.964z"/>
	<path d="M271.808,304.818h-23.001v16h-5v-20h28.001V304.818z"/>
	<path d="M235.144,267.964h-23v16h-5v-20h28V267.964z"/>
	<g>
		<rect x="176.988" y="263.965" width="28" height="4"/>
		<polygon points="188.488,283.965 193.488,283.956 193.488,269.965 188.488,269.973 		"/>
	</g>
	<g>
		<rect x="274.056" y="300.818" width="28" height="4"/>
		<polygon points="285.556,320.818 290.556,320.81 290.556,306.818 285.556,306.827 		"/>
	</g>
	<polygon points="394.033,320.818 394.033,304.818 384.533,304.818 384.533,320.818 381.533,320.818 381.533,304.818 
		372.033,304.818 372.033,320.818 369.033,320.818 369.033,300.818 397.033,300.818 397.033,320.818 	"/>
	<polygon points="563.541,320.818 563.541,304.818 554.041,304.818 554.041,320.818 551.041,320.818 551.041,304.818 
		541.541,304.818 541.541,320.818 538.541,320.818 538.541,300.818 566.541,300.818 566.541,320.818 	"/>
	<polygon points="208.12,320.818 208.12,304.818 186.121,304.818 186.121,320.818 183.121,320.818 183.121,300.818 211.12,300.818 
		211.12,320.818 	"/>
	<path d="M467.426,320.818h-28v-20h5v16h23V320.818z"/>
	<path d="M76.618,283.965h-28v-20h5v16h23V283.965z"/>
	<g>
		<path d="M535.99,320.818h-28v-20h28V320.818z M532.99,316.818v-12h-22v12H532.99z"/>
		<rect x="519.205" y="308.814" width="5.57" height="4.033"/>
	</g>
	<g>
		<path d="M139.736,320.818h-28v-20h28V320.818z M136.736,316.818v-12h-22v12H136.736z"/>
		<rect x="122.951" y="308.814" width="5.57" height="4.033"/>
	</g>
	<polygon points="365.577,304.818 365.577,300.818 337.577,300.818 337.577,320.818 365.577,320.818 365.577,308.818 
		365.577,308.818 355.854,308.818 355.854,312.818 362.577,312.818 362.577,316.818 342.577,316.818 342.577,304.818 	"/>
	<path d="M506.119,320.818h-28v-20h28v4h-23v12h23V320.818z"/>
	<path d="M107.769,320.818h-28v-20h28v4h-23v12h23V320.818z"/>
	<g>
		<path d="M95.682,110.235v6.72h5.467v-4.029h-1.943v-2.691H95.682z"/>
		<path d="M111.345,110.546h-28v-20h28v4.035h-23v11.965h23V110.546z"/>
	</g>
	<g>
		<polygon points="213.558,320.818 232.446,320.818 232.446,316.818 223.505,316.818 238.558,308.297 238.558,316.818 
			235.174,316.818 235.174,320.818 241.558,320.818 241.558,300.818 		"/>
	</g>
	<g>
		<polygon points="220.807,283.965 239.695,283.965 239.695,279.965 230.754,279.965 245.807,271.443 245.807,279.965 
			242.423,279.965 242.423,283.965 248.807,283.965 248.807,263.965 		"/>
	</g>
	<g>
		<polygon points="400.49,320.818 419.379,320.818 419.379,317.818 411.596,317.818 425.49,307.868 425.49,317.818 422.107,317.818 
			422.107,320.818 428.49,320.818 428.49,300.818 		"/>
	</g>
	<path d="M40.833,272.06v-8.095H37.8h-0.966h-21v0.302v3.257v16.441h28V272.06H40.833z M36.833,267.965v4h-16v-4H36.833z
		 M38.375,279.965H20.833v-4h17.542V279.965z"/>
	<path d="M306.118,272.06v-8.095h-3.034h-0.966h-21v0.302v3.257v16.441h28V272.06H306.118z M302.118,267.965v4h-16v-4H302.118z
		 M303.66,279.965h-17.542v-4h17.542V279.965z"/>
	<path d="M74.362,123.66v-8.095h-3l0,0h-22v0.302v3.257v16.441h28V123.66H74.362z M71.362,119.124v4.536h-17v-4.536H71.362z
		 M74.362,131.565h-20v-3.818h20V131.565z"/>
	<path d="M429.279,275.866h-11.07v8.099h-5.48v-8.099H401.74v-11.901h5.373v7.851h19.166v-7.851h3V275.866z"/>
	<polygon points="53.65,55.267 53.65,59.227 78.386,59.227 78.386,63.258 50.126,63.258 50.126,51.236 75.065,51.236 75.065,47.289 
		50.126,47.289 50.126,43.258 78.519,43.258 78.519,55.267 	"/>
	<polygon points="169.616,55.267 169.616,59.227 144.88,59.227 144.88,63.258 173.14,63.258 173.14,51.236 148.201,51.236 
		148.201,47.289 173.14,47.289 173.14,43.258 144.747,43.258 144.747,55.267 	"/>
	<polygon points="81.732,47.289 81.732,43.258 109.992,43.258 109.992,43.258 109.992,63.253 81.732,63.253 81.732,59.222 
		106.434,59.222 106.434,55.279 87.592,55.279 87.592,51.249 106.434,51.249 106.434,47.289 	"/>
	<path d="M34.782,63.258h-4v-20h4V63.258z"/>
	<path d="M141.69,63.258h-5.568v-7.907h-23.007V43.258h5.568v7.951h17.394v-7.951h5.613V63.258z"/>
	<path d="M236.244,63.258h-5.567v-15.88h-22.873v-4.12h28.44V63.258z"/>
	<path d="M267.852,63.258h-28.574v-20h28.574V63.258z M262.284,51.208v-3.875h-17.439v3.875H262.284z M262.284,59.182v-3.853
		h-17.439v3.853H262.284z"/>
	<path d="M330.932,63.258h-28.574v-20h28.574V63.258z M325.364,59.182V47.333h-17.439v11.849H325.364z"/>
	<path d="M204.68,47.289v-4.031h-28.393v20h0.133h3.321h24.939V51.236h-24.939v-3.947H204.68z M201.156,55.267v3.96h-21.415v-3.96
		H201.156z"/>
	<path d="M270.908,59.227v4.031h28.393v-20h-0.133h-3.32h-24.939v12.021h24.939v3.947H270.908z M274.432,51.249v-3.96h21.416v3.96
		H274.432z"/>
	<path d="M364.894,35.267l-4.266,5h-2.203l3.077-5H364.894z"/>
	<path d="M369.543,35.267l3.042,5h-2.168l-4.266-5H369.543z"/>
	<path d="M382.165,35.267l3.357,5h-2.377l-2.028-3.322h-0.07l-2.028,3.322h-2.272l3.287-5H382.165z"/>
	<path d="M390.521,40.267l-3.357-5h2.377l2.063,3.322h0.071l2.063-3.322h2.308l-3.286,5H390.521z"/>
	<path d="M404.156,35.372l-3.847,4.79h-1.923l2.762-4.79H404.156z M409.191,35.372l-3.846,4.79h-1.924l2.763-4.79H409.191z"/>
	<path d="M408.281,39.655c-0.07-2.272,0.873-3.636,2.377-3.636c0.77,0,1.364,0.315,2.169,0.77c0.56,0.314,1.048,0.594,1.468,0.594
		c0.561,0,0.909-0.314,0.979-1.503h1.645c0.035,2.343-0.77,3.531-2.413,3.531c-0.733,0-1.398-0.314-2.134-0.699
		c-0.699-0.42-1.082-0.629-1.502-0.629c-0.561,0-0.84,0.595-0.91,1.573H408.281z"/>
	<path d="M419.364,37.767c0-1.259,0.874-2.203,2.098-2.203s2.028,0.909,2.063,2.203c0,1.259-0.84,2.203-2.098,2.203
		C420.203,39.97,419.329,39.026,419.364,37.767z"/>
	<path d="M434.259,36.771v1.992h-7.867v-1.992H434.259z"/>
	<path d="M54.362,98.641v-8.095h-5l0,0v20h28V98.641H54.362z M74.362,106.546h-20v-3.818h20V106.546z"/>
	<polygon points="20.732,304.818 43.833,304.818 43.833,300.818 15.833,300.818 15.833,320.818 43.833,320.818 43.833,316.818 
		20.732,316.818 20.732,316.786 20.732,312.842 38.028,312.842 38.028,308.842 20.732,308.842 20.732,304.851 	"/>
	<polygon points="316.172,267.965 339.274,267.965 339.274,263.965 311.274,263.965 311.274,283.965 339.274,283.965 
		339.274,279.965 316.172,279.965 316.172,279.933 316.172,275.988 333.468,275.988 333.468,271.988 316.172,271.988 
		316.172,267.997 	"/>
	<polygon points="119.085,267.965 142.187,267.965 142.187,263.965 114.187,263.965 114.187,283.965 142.187,283.965 
		142.187,279.965 119.085,279.965 119.085,279.933 119.085,275.988 136.381,275.988 136.381,271.988 119.085,271.988 
		119.085,267.997 	"/>
	<g>
		<g>
			<g>
				<polygon points="206.947,185.615 206.947,201.616 192.662,201.616 192.662,185.615 189.089,185.615 189.089,205.615 
					209.089,205.615 209.089,185.615 				"/>
				<path d="M184.432,205.615v-4h28v4H184.432z"/>
			</g>
			<path d="M184.432,189.454v-4h28v4H184.432z"/>
		</g>
		<path d="M209.432,162.534v8h-20v-8h-5v20h28v-20H209.432z M189.432,178.535v-4h20v4H189.432z"/>
		<g>
			<path d="M196.932,209.67v8h-10v-8h-2.5v20h14v-20H196.932z M186.932,225.67v-4h10v4H186.932z"/>
			<path d="M211.04,209.67v8h-9.286v-8h-2.321v20h13v-20H211.04z M201.753,225.67v-4h9.286v4H201.753z"/>
		</g>
		<polygon points="41.781,182.534 41.781,166.534 16.782,166.534 16.782,162.534 44.781,162.534 44.781,182.534 		"/>
		<g>
			<polygon points="43.389,229.67 43.389,213.669 31.782,213.669 31.782,209.67 44.782,209.67 44.782,229.67 			"/>
			<polygon points="29.282,229.67 29.282,213.669 16.782,213.669 16.782,209.67 30.782,209.67 30.782,229.67 			"/>
		</g>
		<polygon points="44.782,193.454 44.781,193.454 44.781,185.454 16.782,185.454 16.782,189.454 41.781,189.454 41.781,193.454 
			16.782,193.454 16.782,197.454 41.781,197.454 41.781,205.454 44.781,205.454 44.781,197.454 44.782,197.454 		"/>
		<path d="M78.312,182.534h-28v-20h5v16h23V182.534z"/>
		<g>
			<path d="M178.902,182.534h-28v-20h28V182.534z M175.902,178.535v-12.001h-22v12.001H175.902z"/>
		</g>
		<g>
			<path d="M285.023,165.534v-3h28v3H285.023z"/>
			<path d="M312.792,182.534h-3l-10.769-14.833l-8.77,14.833h-5l11.77-17v-1.5h4v1.5L312.792,182.534z"/>
		</g>
		<g>
			<path d="M289.022,187.9v-2.446h20v2.446H289.022z"/>
			<path d="M285.023,191.594v-2.446h28v2.446H285.023z"/>
			<path d="M312.792,205.454h-3l-10.769-12.093l-8.77,12.093h-5l11.77-13.86v-1.223h4v1.223L312.792,205.454z"/>
		</g>
		<g>
			<path d="M279.031,182.159h-3.051l-10.949-14.297l-8.916,14.297h-5.084l11.967-16.386v-3.614h4.067v3.614L279.031,182.159z"/>
		</g>
		<polygon points="88.741,166.534 111.842,166.534 111.842,162.534 83.842,162.534 83.842,182.534 111.842,182.534 111.842,178.534 
			88.741,178.534 88.741,178.502 88.741,166.566 		"/>
		<g>
			<polygon points="101.117,213.67 111.842,213.67 111.842,209.67 98.842,209.67 98.842,229.67 111.842,229.67 111.842,225.67 
				101.117,225.67 101.117,225.638 101.117,213.702 			"/>
			<polygon points="86.292,213.67 97.842,213.67 97.842,209.67 83.842,209.67 83.842,229.67 97.842,229.67 97.842,225.67 
				86.292,225.67 86.292,225.638 86.292,213.702 			"/>
		</g>
		<path d="M231.962,162.534c-7.732,0-14,4.477-14,10s6.268,10,14,10c7.731,0,14-4.477,14-10S239.694,162.534,231.962,162.534z
			 M231.962,180.36c-6.052,0-10.957-3.504-10.957-7.826s4.905-7.826,10.957-7.826c6.05,0,10.956,3.504,10.956,7.826
			S238.012,180.36,231.962,180.36z"/>
		<g>
			<path d="M323.4,164.768v-2.609h28v2.609H323.4z"/>
			<path d="M337.4,164.768c-7.732,0-14,3.893-14,8.695c0,4.803,6.268,8.696,14,8.696c7.731,0,14-3.893,14-8.696
				C351.4,168.661,345.131,164.768,337.4,164.768z M337.4,180.269c-6.052,0-10.957-3.047-10.957-6.806
				c0-3.758,4.905-6.805,10.957-6.805c6.05,0,10.956,3.047,10.956,6.805C348.356,177.222,343.45,180.269,337.4,180.269z"/>
		</g>
		<g>
			<path d="M323.4,191.938v-2.032h28v2.032H323.4z"/>
			<path d="M335.457,185.454l3.041,3.998h-2.168l-4.266-3.998H335.457z"/>
			<path d="M337.4,191.938c-5.046,0-9.136,3.025-9.136,6.758s4.09,6.758,9.136,6.758c5.045,0,9.136-3.025,9.136-6.758
				S342.445,191.938,337.4,191.938z M337.4,203.985c-3.949,0-7.149-2.368-7.149-5.289c0-2.921,3.2-5.289,7.149-5.289
				c3.948,0,7.149,2.368,7.149,5.289C344.549,201.617,341.348,203.985,337.4,203.985z"/>
		</g>
		<polygon points="142.373,178.535 122.373,178.535 122.373,174.534 142.373,174.534 145.373,174.534 145.373,162.534 
			145.242,162.534 142.373,162.534 117.373,162.534 117.373,166.551 142.373,166.551 142.373,170.534 117.373,170.534 
			117.373,182.534 145.373,182.534 145.373,178.535 		"/>
		<g>
			<polygon points="88.741,201.422 88.741,197.478 111.842,197.478 111.842,193.478 88.741,193.478 88.741,193.478 83.842,193.478 
				83.842,205.454 111.842,205.454 111.842,201.454 88.741,201.454 			"/>
			<polygon points="83.842,185.454 83.842,189.454 88.741,189.454 88.741,189.454 88.741,189.454 111.842,189.454 111.842,185.454 
							"/>
		</g>
		<g>
			<g>
				<path d="M300.023,212.67v-3h13v3H300.023z"/>
				<path d="M312.916,229.67h-1.393l-5-14.833l-4.071,14.833h-2.321l5.464-17v-1.5h1.857v1.5L312.916,229.67z"/>
			</g>
			<g>
				<path d="M285.023,212.67v-3h14v3H285.023z"/>
				<path d="M298.908,229.67h-1.5l-5.385-14.833l-4.385,14.833h-2.5l5.885-17v-1.5h2v1.5L298.908,229.67z"/>
			</g>
		</g>
		<g>
			<g>
				<path d="M385.555,182.159h-3.051l-10.949-14.297l-8.917,14.297h-5.084l14-20L385.555,182.159z"/>
			</g>
			<polygon points="385.555,182.159 357.554,182.159 359.654,179.159 383.455,179.159 			"/>
		</g>
		<g>
			<g>
				<path d="M265.031,229.67h-1.525l-5.475-14.297l-4.458,14.297h-2.542l5.983-16.386v-3.614h2.033v3.614L265.031,229.67z"/>
			</g>
			<g>
				<path d="M279.031,229.67h-1.416l-5.084-14.297l-4.14,14.297h-2.36l5.556-16.386v-3.614h1.889v3.614L279.031,229.67z"/>
			</g>
		</g>
	</g>
	<g>
		<path d="M428.75,157.159h-5v-20h5V157.159z"/>
		<rect x="433.25" y="145.659" width="3" height="3"/>
	</g>
	<g>
		<path d="M464.25,157.159h-3v-20h3V157.159z"/>
		<path d="M456.75,154.659h-5v-15h5V154.659z"/>
		<rect x="456.75" y="145.659" width="3" height="3"/>
	</g>
	<g>
		<path d="M513.887,157.159h-3v-20h3V157.159z"/>
	</g>
	<g>
		<path d="M428.75,184.907h-5v-20h5V184.907z"/>
		<rect x="433.25" y="176.407" width="3" height="3"/>
		<rect x="433.25" y="170.407" width="3" height="3"/>
	</g>
	<g>
		<path d="M441.25,240h-5v-20h5V240z"/>
		<rect x="445.75" y="231.5" width="3" height="3"/>
		<rect x="445.75" y="225.5" width="3" height="3"/>
	</g>
	<g>
		<path d="M449.377,211.17h-3v-20h3V211.17z"/>
		<path d="M441.877,208.67h-5v-15h5V208.67z"/>
		<rect x="441.627" y="202.67" width="3" height="3"/>
		<rect x="441.627" y="196.67" width="3" height="3"/>
	</g>
	<g>
		<path d="M486.25,137.159h4v20h-4V137.159z"/>
		<rect x="478.75" y="145.659" width="3" height="3"/>
	</g>
	<g>
		<path d="M486.25,192.67h4v20h-4V192.67z"/>
		<rect x="478.75" y="201.17" width="3" height="3"/>
	</g>
	<g>
		<path d="M486.25,164.907h4v20h-4V164.907z"/>
		<rect x="478.75" y="176.407" width="3" height="3"/>
		<rect x="478.75" y="170.407" width="3" height="3"/>
	</g>
	<g>
		<path d="M485.803,221.5h4v20h-4V221.5z"/>
		<rect x="478.303" y="233" width="3" height="3"/>
		<rect x="478.303" y="227" width="3" height="3"/>
	</g>
	<g>
		<path d="M504.667,139.659h4v15h-4V139.659z"/>
		<rect x="497.167" y="145.659" width="3" height="3"/>
	</g>
	<g>
		<g>
			<path d="M513.887,184.907h-3v-20h3V184.907z"/>
		</g>
		<g>
			<path d="M504.667,167.407h4v15h-4V167.407z"/>
			<rect x="497.167" y="176.407" width="3" height="3"/>
			<rect x="497.167" y="170.407" width="3" height="3"/>
		</g>
	</g>
	<g>
		<path d="M441.615,205.194v4h-20.238v-4H441.615z"/>
		<rect x="430.412" y="199.67" width="2.168" height="3"/>
	</g>
	<g>
		<path d="M440.988,234.024v4H420.75v-4H440.988z"/>
		<rect x="429.785" y="228.5" width="2.168" height="3"/>
	</g>
	<g>
		<path d="M548.15,174.458v4h-28v-4H548.15z"/>
		<rect x="529.65" y="168.907" width="3" height="3"/>
		<rect x="535.65" y="168.907" width="3" height="3"/>
	</g>
	<g>
		<path d="M553.4,172.907v-4h28v4H553.4z"/>
		<rect x="562.9" y="175.458" width="3" height="3"/>
		<rect x="568.9" y="175.458" width="3" height="3"/>
	</g>
	<g>
		<path d="M553.4,143.635v-4h28v4H553.4z"/>
		<rect x="565.9" y="146.159" width="3" height="3"/>
	</g>
	<g>
		<path d="M462.25,198.646v-4h28v4H462.25z"/>
		<rect x="474.75" y="201.17" width="3" height="3"/>
	</g>
	<g>
		<path d="M461.803,227.476v-4h28v4H461.803z"/>
		<rect x="474.303" y="230" width="3" height="3"/>
	</g>
	<polygon points="597.725,74.796 597.725,70.813 620.594,70.813 620.594,66.796 592.725,66.796 592.725,78.796 617.725,78.796 
		617.725,82.797 592.725,82.797 592.725,86.796 620.725,86.796 620.725,74.796 	"/>
	<polygon points="683.185,66.796 683.185,82.797 663.185,82.797 663.185,66.796 658.185,66.796 658.185,86.796 686.185,86.796 
		686.185,66.796 	"/>
	<path d="M293.42,86.796h-4v-20h4V86.796z"/>
	<polygon points="713.915,66.796 713.915,82.449 695.915,66.796 690.915,66.796 713.915,86.796 718.915,86.796 718.915,66.796 	"/>
	<polygon points="355.881,76.226 355.881,69.226 352.881,69.226 352.881,76.226 335.881,76.226 335.881,66.796 330.882,66.796 
		330.882,76.226 330.881,76.226 330.881,79.226 330.882,79.226 330.882,86.796 335.881,86.796 335.881,79.226 352.173,79.226 
		355.173,79.226 355.881,79.226 355.881,86.796 358.881,86.796 358.881,79.226 358.881,76.796 358.881,76.226 	"/>
	<path d="M587.994,70.796h-23v16h-5v-20h28V70.796z"/>
	<g>
		<rect x="625.455" y="66.796" width="28" height="4"/>
		<polygon points="636.955,86.796 641.955,86.788 641.955,72.796 636.955,72.805 		"/>
	</g>
	<polygon points="421.342,86.796 421.342,70.796 411.842,70.796 411.842,86.796 408.842,86.796 408.842,70.796 399.342,70.796 
		399.342,86.796 396.342,86.796 396.342,66.796 424.342,66.796 424.342,86.796 	"/>
	<polygon points="454.072,86.796 454.072,70.796 432.073,70.796 432.073,86.796 429.073,86.796 429.073,66.796 457.072,66.796 
		457.072,86.796 	"/>
	<path d="M391.611,86.796h-28v-20h5v16h23V86.796z"/>
	<g>
		<path d="M489.803,86.796h-28v-20h28V86.796z M486.803,82.797V70.796h-22v12.001H486.803z"/>
		<rect x="473.018" y="74.793" width="5.57" height="4.033"/>
	</g>
	<path d="M555.264,86.771V66.796h-28v19.975h12.826v6.72h14v-4h-10.477v-2.721H555.264z M532.264,70.796h20v12.001h-20V70.796z"/>
	<polygon points="240.261,70.796 240.261,66.796 212.261,66.796 212.261,86.796 240.261,86.796 240.261,74.797 240.261,74.797 
		230.537,74.797 230.537,78.796 237.261,78.796 237.261,82.797 217.261,82.797 217.261,70.796 	"/>
	<path d="M109.941,86.796h-28v-20h28v4h-23v12h23V86.796z"/>
	<g>
		<polygon points="16.782,86.796 35.67,86.796 35.67,83.796 27.887,83.796 41.782,73.847 41.782,83.796 38.398,83.796 
			38.398,86.796 44.782,86.796 44.782,66.796 		"/>
	</g>
	<path d="M74.362,74.891v-8.095h-25v0.302v19.698h28V74.891H74.362z M70.362,70.796v4h-16v-4H70.362z M71.903,82.796H54.362v-4
		h17.542V82.796z"/>
	<path d="M142.521,86.796h-28v-20h14L142.521,86.796z M134.852,82.796l-8.219-12h-7.112v12H134.852z"/>
	<path d="M272.841,86.796H269.3v-8h-19.459v8h-5v-20h5v8H269.3v-8h3.541V86.796z"/>
	<polygon points="323.151,66.796 323.151,82.797 303.151,82.797 303.151,78.796 298.151,78.796 298.151,86.796 326.151,86.796 
		326.151,66.796 	"/>
	<path d="M522.533,78.796h-23v8h-5v-20h28V78.796z M519.533,74.796v-4h-20v4H519.533z"/>
	<path d="M817.106,78.796h-11.769v8h-4v-8h-11.77v-12h5v8h19.538v-8h3V78.796z"/>
	<polygon points="849.837,66.796 821.837,66.796 821.837,70.796 842.833,70.796 821.837,82.797 821.837,86.796 849.837,86.796 
		849.837,82.797 828.667,82.797 849.837,70.796 	"/>
	<polygon points="152,70.796 175.101,70.796 175.101,66.796 147.101,66.796 147.101,86.796 175.101,86.796 175.101,82.796 
		152,82.796 152,82.764 152,78.82 169.295,78.82 169.295,74.82 152,74.82 152,70.829 	"/>
	<polygon points="184.58,70.796 207.681,70.796 207.681,66.796 179.681,66.796 179.681,86.796 184.58,86.796 184.58,78.82 
		201.875,78.82 201.875,74.82 184.58,74.82 184.58,70.829 	"/>
	<polygon points="784.375,74.796 784.373,74.796 780.668,74.796 780.668,66.772 777.668,66.772 777.668,74.796 763.082,74.796 
		763.082,66.772 760.082,66.772 760.082,74.796 756.377,74.796 756.375,74.796 756.374,74.796 756.374,86.796 756.377,86.796 
		761.377,86.796 761.377,78.796 779.373,78.796 779.373,86.796 784.373,86.796 784.376,86.796 784.376,74.796 	"/>
	<polygon points="748.646,66.796 748.646,82.797 739.146,82.797 739.146,66.796 736.146,66.796 736.146,82.797 726.646,82.797 
		726.646,66.796 723.646,66.796 723.646,86.796 751.646,86.796 751.646,66.796 	"/>
	<polygon points="168.704,300.818 168.704,316.818 159.204,316.818 159.204,300.818 156.204,300.818 156.204,316.818 
		146.704,316.818 146.704,300.818 143.704,300.818 143.704,320.818 171.704,320.818 171.704,300.818 	"/>
	<g>
		<polygon points="19.751,409.792 19.751,411.772 32.117,411.772 32.117,413.788 17.989,413.788 17.989,407.779 30.459,407.779 
			30.459,405.804 17.989,405.804 17.989,403.788 32.185,403.788 32.185,409.792 		"/>
		<path d="M51.663,413.788h-2v-10h2V413.788z"/>
		<path d="M67.51,413.788H53.225v-10H67.51V413.788z M64.727,407.763v-1.937h-8.72v1.937H64.727z M64.727,411.75v-1.928h-8.72v1.928
			H64.727z"/>
		<path d="M48.398,413.788H34.11v-10h14.288V413.788z M45.612,411.75v-5.924h-8.72v5.924H45.612z"/>
	</g>
	<g>
		<path d="M67.225,449.163h-2.741v-7.939H53.225v-2.061h14V449.163z"/>
		<polygon points="19.751,445.167 19.751,447.147 32.117,447.147 32.117,449.163 17.989,449.163 17.989,443.154 30.459,443.154 
			30.459,441.179 17.989,441.179 17.989,439.163 32.185,439.163 32.185,445.167 		"/>
		<path d="M51.663,449.163h-2v-10h2V449.163z"/>
		<path d="M48.398,449.163H34.11v-10h14.288V449.163z M45.612,447.125v-5.924h-8.72v5.924H45.612z"/>
	</g>
	<g>
		<path d="M53.225,400.307v2.016h14v-10h-0.065h-1.637H53.225v6.011h12.297v1.974H53.225z M54.962,396.318v-1.98h10.56v1.98H54.962z
			"/>
		<polygon points="19.751,398.326 19.751,400.307 32.117,400.307 32.117,402.322 17.989,402.322 17.989,396.313 30.459,396.313 
			30.459,394.338 17.989,394.338 17.989,392.322 32.185,392.322 32.185,398.326 		"/>
		<path d="M51.663,402.322h-2v-10h2V402.322z"/>
		<path d="M48.398,402.322H34.11v-10h14.288V402.322z M45.612,400.284v-5.924h-8.72v5.924H45.612z"/>
	</g>
	<g>
		<polygon points="19.751,373.834 19.751,375.814 32.117,375.814 32.117,377.83 17.989,377.83 17.989,371.821 30.459,371.821 
			30.459,369.846 17.989,369.846 17.989,367.83 32.185,367.83 32.185,373.834 		"/>
		<path d="M48.398,377.83H34.11v-10h14.288V377.83z M45.612,375.792v-5.924h-8.72v5.924H45.612z"/>
		<g>
			<polygon points="51.425,373.834 51.425,375.814 63.791,375.814 63.791,377.83 49.663,377.83 49.663,371.821 62.133,371.821 
				62.133,369.846 49.663,369.846 49.663,367.83 63.859,367.83 63.859,373.834 			"/>
			<path d="M80.072,377.83H65.784v-10h14.288V377.83z M77.286,375.792v-5.924h-8.72v5.924H77.286z"/>
		</g>
	</g>
	<g>
		<polygon points="52.803,354.276 52.803,350.306 75.642,350.306 75.642,346.286 47.807,346.286 47.807,358.28 72.78,358.28 
			72.78,362.267 47.807,362.267 47.807,366.271 75.774,366.271 75.774,354.276 		"/>
		<path d="M171.528,366.256h-3.995v-19.985h3.995V366.256z"/>
		<path d="M261.369,350.273H238.39v15.982h-4.988v-19.985h27.967V350.273z"/>
		<g>
			<rect x="263.187" y="346.271" width="27.967" height="4.003"/>
			<polygon points="274.671,366.256 279.668,366.239 279.668,352.26 274.671,352.275 			"/>
		</g>
		<polygon points="198.805,366.256 198.805,350.273 176.827,350.273 176.827,366.256 173.833,366.256 173.833,346.271 
			201.8,346.271 201.8,366.256 		"/>
		<g>
			<path d="M135.411,366.256h-27.967v-19.985h27.967V366.256z M132.408,362.252v-11.979h-21.97v11.979H132.408z"/>
			<rect x="118.64" y="354.262" width="5.567" height="4.034"/>
		</g>
		<path d="M105.592,366.256H77.625v-19.985h27.967v4.003H82.614v11.979h22.979V366.256z"/>
		<g>
			<polygon points="203.618,366.256 222.483,366.256 222.483,362.252 213.555,362.252 228.59,353.745 228.59,362.252 
				225.212,362.252 225.212,366.256 231.584,366.256 231.584,346.271 			"/>
		</g>
		<polygon points="22.883,350.273 45.956,350.273 45.956,346.271 17.989,346.271 17.989,366.256 45.956,366.256 45.956,362.252 
			22.883,362.252 22.883,362.22 22.883,358.28 40.154,358.28 40.154,354.293 22.883,354.293 22.883,350.306 		"/>
		<polygon points="162.234,346.286 162.234,362.267 152.751,362.267 152.751,346.286 149.748,346.286 149.748,362.267 
			140.265,362.267 140.265,346.286 137.262,346.286 137.262,366.271 165.229,366.271 165.229,346.286 		"/>
	</g>
	<g>
		<polygon points="52.803,425.609 52.803,421.639 75.642,421.639 75.642,417.619 47.807,417.619 47.807,429.613 72.78,429.613 
			72.78,433.6 47.807,433.6 47.807,437.604 75.774,437.604 75.774,425.609 		"/>
		<path d="M171.528,437.589h-3.995v-19.985h3.995V437.589z"/>
		<path d="M261.369,421.606H238.39v15.982h-4.988v-19.985h27.967V421.606z"/>
		<g>
			<rect x="263.187" y="417.604" width="27.967" height="4.003"/>
			<polygon points="274.671,437.589 279.668,437.572 279.668,423.593 274.671,423.608 			"/>
		</g>
		<polygon points="198.805,437.589 198.805,421.606 176.827,421.606 176.827,437.589 173.833,437.589 173.833,417.604 
			201.8,417.604 201.8,437.589 		"/>
		<g>
			<path d="M135.411,437.589h-27.967v-19.985h27.967V437.589z M132.408,433.585v-11.979h-21.97v11.979H132.408z"/>
			<rect x="118.64" y="425.595" width="5.567" height="4.034"/>
		</g>
		<path d="M105.592,437.589H77.625v-19.985h27.967v4.003H82.614v11.979h22.979V437.589z"/>
		<g>
			<polygon points="203.618,437.589 222.483,437.589 222.483,433.585 213.555,433.585 228.59,425.078 228.59,433.585 
				225.212,433.585 225.212,437.589 231.584,437.589 231.584,417.604 			"/>
		</g>
		<polygon points="22.883,421.606 45.956,421.606 45.956,417.604 17.989,417.604 17.989,437.589 45.956,437.589 45.956,433.585 
			22.883,433.585 22.883,433.553 22.883,429.613 40.154,429.613 40.154,425.626 22.883,425.626 22.883,421.639 		"/>
		<polygon points="162.234,417.619 162.234,433.6 152.751,433.6 152.751,417.619 149.748,417.619 149.748,433.6 140.265,433.6 
			140.265,417.619 137.262,417.619 137.262,437.604 165.229,437.604 165.229,417.619 		"/>
	</g>
</g>
</svg>
